<svg width="346" height="287" viewBox="0 0 346 287" fill="none" xmlns="http://www.w3.org/2000/svg">
<g clip-path="url(#clip0_5866_11337)">
<path d="M51.7342 45.6328C106.381 -11.1812 249.22 36.9968 294.312 119.149C317.027 160.544 314.346 211.641 286.945 243.584C243.394 294.384 141.498 291.926 77.9327 230.945C21.1231 176.44 13.4947 85.3903 51.7342 45.6328Z" fill="#ECF3FE"/>
<path d="M173.953 235.343C173.555 235.341 173.159 235.286 172.776 235.179L80.0183 209.071C79.4709 208.917 78.9592 208.657 78.5124 208.305C78.0656 207.954 77.6925 207.518 77.4144 207.022C77.1363 206.526 76.9586 205.981 76.8915 205.417C76.8245 204.853 76.8693 204.281 77.0235 203.734L110.871 83.7278C111.186 82.6247 111.925 81.6911 112.927 81.1314C113.93 80.5717 115.113 80.4315 116.219 80.7414L208.977 106.85C210.081 107.162 211.017 107.899 211.579 108.899C212.14 109.9 212.281 111.082 211.971 112.186L178.119 232.187C177.863 233.094 177.318 233.893 176.566 234.463C175.814 235.033 174.896 235.342 173.953 235.343V235.343ZM115.037 81.8292C114.367 81.8308 113.715 82.0506 113.181 82.4553C112.648 82.8599 112.26 83.4273 112.078 84.0716L78.2307 204.073C78.0108 204.857 78.1111 205.697 78.5097 206.408C78.9084 207.118 79.5728 207.642 80.3574 207.865L173.115 233.988C173.901 234.208 174.741 234.108 175.453 233.71C176.165 233.311 176.689 232.648 176.912 231.864L210.764 111.863L211.365 112.032L210.764 111.863C210.986 111.078 210.886 110.237 210.487 109.525C210.089 108.813 209.423 108.288 208.638 108.066L115.874 81.9421C115.602 81.8669 115.32 81.8289 115.037 81.8292V81.8292Z" fill="#444444"/>
<g style="mix-blend-mode:multiply" opacity="0.2">
<path d="M245.557 114.1L242.721 116.671L224.814 111.242L217.36 106.952L245.557 114.1Z" fill="#3A7EC1"/>
</g>
<g style="mix-blend-mode:multiply" opacity="0.2">
<path d="M312.353 43.2161L289.555 107.152L287.11 104.458L312.353 43.2161Z" fill="#3A7EC1"/>
</g>
<path d="M226.93 261.857C226.349 261.856 225.771 261.762 225.22 261.579C224.548 261.356 223.928 261.003 223.394 260.54C222.859 260.077 222.422 259.513 222.107 258.88L178.186 171.042C177.549 169.766 177.446 168.289 177.898 166.936C178.351 165.583 179.323 164.465 180.6 163.828L294.286 107.106C294.918 106.79 295.607 106.602 296.312 106.552C297.017 106.502 297.726 106.592 298.396 106.815C299.067 107.039 299.687 107.392 300.221 107.855C300.755 108.318 301.193 108.881 301.509 109.513L345.43 197.351C346.067 198.627 346.171 200.103 345.719 201.456C345.267 202.808 344.297 203.927 343.02 204.565L229.334 261.287C228.588 261.662 227.765 261.857 226.93 261.857V261.857ZM296.685 107.789C296.046 107.789 295.417 107.939 294.846 108.225L181.16 164.946C180.179 165.435 179.433 166.293 179.086 167.331C178.738 168.37 178.817 169.503 179.305 170.483L223.232 258.321C223.472 258.808 223.806 259.242 224.216 259.599C224.625 259.956 225.102 260.228 225.617 260.4C226.132 260.572 226.677 260.64 227.219 260.6C227.761 260.56 228.29 260.414 228.774 260.168L342.46 203.447C343.439 202.956 344.183 202.097 344.53 201.06C344.876 200.022 344.797 198.89 344.31 197.91L300.389 110.072C300.044 109.386 299.516 108.808 298.861 108.405C298.207 108.002 297.454 107.788 296.685 107.789Z" fill="#444444"/>
<path d="M241.206 257.012L175.17 184.281C174.75 183.819 174.425 183.279 174.214 182.691C174.003 182.104 173.91 181.481 173.941 180.857C173.972 180.234 174.125 179.622 174.392 179.058C174.66 178.494 175.036 177.988 175.499 177.569L269.634 92.2919C270.569 91.4445 271.802 91.0025 273.063 91.0631C274.324 91.1237 275.509 91.682 276.358 92.6152L342.389 165.347C342.809 165.809 343.134 166.349 343.345 166.936C343.556 167.524 343.649 168.147 343.618 168.771C343.587 169.394 343.434 170.005 343.167 170.569C342.899 171.134 342.523 171.64 342.06 172.058L247.93 257.336C246.995 258.183 245.762 258.625 244.501 258.565C243.24 258.504 242.055 257.946 241.206 257.012Z" fill="#3B82F4"/>
<path d="M274.612 216.737L218.552 154.997C218.432 154.865 218.37 154.69 218.378 154.512C218.387 154.334 218.466 154.167 218.598 154.047L261.153 115.496C261.218 115.436 261.294 115.389 261.377 115.359C261.461 115.329 261.549 115.316 261.638 115.32C261.726 115.324 261.813 115.346 261.893 115.384C261.972 115.422 262.044 115.476 262.103 115.542L318.163 177.282C318.282 177.415 318.343 177.59 318.335 177.769C318.326 177.947 318.248 178.115 318.116 178.236L275.562 216.783C275.497 216.843 275.42 216.889 275.337 216.919C275.254 216.949 275.165 216.963 275.077 216.958C274.989 216.954 274.902 216.932 274.822 216.894C274.742 216.856 274.671 216.803 274.612 216.737ZM220.006 154.591L275.156 215.336L316.709 177.687L261.559 116.948L220.006 154.591Z" fill="#B3CEF6"/>
<path d="M281.701 210.312L225.646 148.572C225.584 148.507 225.536 148.431 225.505 148.347C225.473 148.263 225.459 148.174 225.462 148.085C225.466 147.995 225.487 147.907 225.525 147.826C225.562 147.745 225.616 147.672 225.682 147.612C225.749 147.552 225.827 147.506 225.911 147.476C225.996 147.446 226.085 147.434 226.175 147.439C226.264 147.444 226.351 147.467 226.432 147.507C226.512 147.546 226.584 147.602 226.643 147.669L282.702 209.409C282.822 209.545 282.883 209.723 282.871 209.904C282.86 210.085 282.777 210.254 282.641 210.374C282.504 210.494 282.326 210.554 282.145 210.543C281.964 210.531 281.795 210.448 281.675 210.312H281.701Z" fill="#B3CEF6"/>
<path d="M288.795 203.888L232.735 142.138C232.668 142.073 232.615 141.996 232.579 141.91C232.543 141.824 232.525 141.732 232.526 141.639C232.527 141.546 232.548 141.455 232.586 141.37C232.624 141.285 232.679 141.209 232.748 141.147C232.817 141.084 232.898 141.037 232.986 141.007C233.074 140.977 233.168 140.966 233.26 140.973C233.353 140.981 233.443 141.008 233.525 141.052C233.607 141.096 233.679 141.156 233.737 141.229L289.791 202.985C289.853 203.05 289.901 203.126 289.932 203.21C289.964 203.294 289.979 203.383 289.975 203.472C289.972 203.562 289.951 203.65 289.913 203.731C289.875 203.812 289.821 203.885 289.755 203.945C289.689 204.005 289.611 204.051 289.526 204.081C289.442 204.111 289.352 204.123 289.263 204.118C289.173 204.113 289.086 204.09 289.005 204.05C288.925 204.011 288.853 203.955 288.795 203.888V203.888Z" fill="#B3CEF6"/>
<path d="M295.889 197.464L239.829 135.724C239.708 135.592 239.645 135.417 239.654 135.239C239.662 135.06 239.741 134.892 239.873 134.772C240.005 134.651 240.18 134.588 240.358 134.596C240.537 134.605 240.705 134.683 240.826 134.815L296.885 196.555C297.006 196.692 297.067 196.87 297.056 197.051C297.045 197.233 296.962 197.402 296.826 197.523C296.759 197.582 296.68 197.628 296.595 197.657C296.51 197.687 296.42 197.699 296.33 197.693C296.148 197.682 295.978 197.6 295.858 197.464H295.889Z" fill="#B3CEF6"/>
<path d="M302.978 191.039L246.918 129.309C246.812 129.175 246.761 129.005 246.775 128.834C246.79 128.663 246.868 128.504 246.995 128.389C247.122 128.273 247.288 128.211 247.46 128.213C247.632 128.215 247.796 128.282 247.92 128.401L303.98 190.131C304.099 190.264 304.161 190.44 304.151 190.619C304.142 190.797 304.061 190.965 303.928 191.085C303.863 191.145 303.787 191.191 303.703 191.222C303.62 191.252 303.532 191.265 303.443 191.261C303.355 191.257 303.268 191.235 303.188 191.197C303.108 191.159 303.037 191.105 302.978 191.039Z" fill="#B3CEF6"/>
<path d="M310.072 184.615L254.012 122.875C253.945 122.81 253.892 122.733 253.856 122.647C253.82 122.561 253.802 122.469 253.803 122.376C253.805 122.283 253.825 122.192 253.863 122.107C253.901 122.022 253.957 121.946 254.026 121.884C254.094 121.821 254.175 121.774 254.264 121.744C254.352 121.714 254.445 121.703 254.538 121.71C254.631 121.718 254.721 121.745 254.803 121.789C254.885 121.833 254.957 121.893 255.014 121.966L311.069 183.701C311.189 183.833 311.252 184.008 311.244 184.186C311.236 184.365 311.157 184.533 311.025 184.653C310.96 184.713 310.883 184.759 310.8 184.789C310.716 184.819 310.628 184.833 310.539 184.828C310.361 184.82 310.193 184.742 310.072 184.61V184.615Z" fill="#B3CEF6"/>
<path d="M265.267 206.448C265.207 206.383 265.161 206.306 265.13 206.223C265.1 206.139 265.087 206.05 265.091 205.962C265.095 205.873 265.117 205.786 265.155 205.706C265.194 205.625 265.247 205.553 265.314 205.494L307.863 166.948C307.928 166.888 308.005 166.842 308.088 166.812C308.172 166.782 308.26 166.768 308.349 166.772C308.437 166.776 308.524 166.798 308.604 166.835C308.684 166.873 308.756 166.926 308.816 166.991C308.876 167.056 308.922 167.133 308.952 167.216C308.982 167.299 308.996 167.388 308.991 167.476C308.987 167.564 308.966 167.651 308.928 167.731C308.891 167.811 308.838 167.883 308.772 167.943L266.218 206.495C266.153 206.555 266.076 206.601 265.993 206.631C265.91 206.661 265.821 206.675 265.733 206.67C265.644 206.666 265.558 206.644 265.478 206.606C265.398 206.568 265.326 206.514 265.267 206.448V206.448Z" fill="#B3CEF6"/>
<path d="M255.923 196.16C255.803 196.027 255.74 195.852 255.749 195.673C255.758 195.495 255.837 195.326 255.969 195.206L298.524 156.654C298.657 156.534 298.832 156.472 299.011 156.481C299.189 156.49 299.357 156.57 299.477 156.703C299.597 156.836 299.659 157.01 299.65 157.189C299.641 157.367 299.561 157.535 299.428 157.655L256.879 196.206C256.745 196.325 256.57 196.387 256.391 196.378C256.213 196.37 256.045 196.291 255.923 196.16V196.16Z" fill="#B3CEF6"/>
<path d="M246.574 185.867C246.455 185.734 246.394 185.56 246.402 185.383C246.411 185.205 246.489 185.038 246.62 184.918L289.175 146.366C289.308 146.251 289.48 146.192 289.656 146.202C289.832 146.213 289.996 146.292 290.114 146.422C290.233 146.552 290.295 146.723 290.289 146.899C290.282 147.074 290.207 147.24 290.079 147.361L247.529 185.913C247.464 185.973 247.387 186.02 247.303 186.05C247.22 186.08 247.131 186.093 247.042 186.089C246.953 186.085 246.866 186.063 246.786 186.025C246.705 185.987 246.633 185.933 246.574 185.867V185.867Z" fill="#B3CEF6"/>
<path d="M237.24 175.579C237.18 175.513 237.134 175.436 237.103 175.353C237.073 175.269 237.06 175.18 237.064 175.092C237.068 175.003 237.09 174.916 237.128 174.836C237.167 174.755 237.22 174.684 237.286 174.624L279.836 136.078C279.968 135.957 280.143 135.894 280.321 135.902C280.5 135.91 280.668 135.989 280.789 136.121C280.909 136.253 280.973 136.428 280.964 136.606C280.956 136.785 280.877 136.953 280.745 137.073L238.191 175.625C238.125 175.685 238.049 175.731 237.966 175.761C237.883 175.791 237.794 175.805 237.706 175.8C237.617 175.796 237.531 175.774 237.451 175.736C237.371 175.698 237.299 175.645 237.24 175.579V175.579Z" fill="#B3CEF6"/>
<path d="M227.896 165.285C227.836 165.22 227.79 165.144 227.759 165.061C227.729 164.977 227.716 164.889 227.72 164.801C227.725 164.712 227.746 164.626 227.785 164.546C227.823 164.466 227.876 164.395 227.942 164.336L270.492 125.784C270.625 125.665 270.8 125.604 270.979 125.612C271.158 125.621 271.326 125.699 271.447 125.83C271.507 125.896 271.554 125.973 271.584 126.056C271.614 126.14 271.628 126.228 271.623 126.317C271.619 126.406 271.597 126.493 271.559 126.573C271.521 126.654 271.467 126.725 271.401 126.785L228.846 165.331C228.781 165.391 228.705 165.438 228.622 165.468C228.538 165.498 228.45 165.511 228.362 165.507C228.273 165.503 228.186 165.481 228.107 165.443C228.027 165.405 227.955 165.351 227.896 165.285V165.285Z" fill="#B3CEF6"/>
<path d="M295.545 139.669L269.963 111.493C269.702 111.207 269.501 110.872 269.37 110.508C269.239 110.144 269.181 109.758 269.2 109.371C269.218 108.985 269.313 108.606 269.478 108.256C269.643 107.906 269.876 107.592 270.163 107.332V107.332C270.45 107.071 270.785 106.869 271.15 106.738C271.515 106.606 271.903 106.549 272.29 106.567C272.678 106.586 273.058 106.68 273.408 106.846C273.759 107.012 274.074 107.245 274.334 107.532L299.916 135.713C300.177 135.999 300.378 136.334 300.509 136.698C300.64 137.063 300.698 137.449 300.679 137.835C300.661 138.222 300.566 138.601 300.401 138.951C300.235 139.301 300.003 139.615 299.716 139.875V139.875C299.135 140.4 298.37 140.673 297.588 140.635C296.806 140.596 296.071 140.249 295.545 139.669V139.669Z" fill="#B3CEF6"/>
<path d="M232.19 193.523L207.872 166.717C207.487 166.287 207.287 165.722 207.315 165.146C207.344 164.569 207.6 164.027 208.026 163.638V163.638C208.457 163.253 209.022 163.053 209.599 163.082C210.176 163.111 210.719 163.366 211.108 163.792L235.447 190.598C235.833 191.028 236.033 191.592 236.004 192.169C235.975 192.745 235.72 193.287 235.293 193.677V193.677C235.08 193.87 234.83 194.02 234.558 194.117C234.286 194.215 233.998 194.257 233.71 194.243C233.422 194.229 233.139 194.158 232.878 194.034C232.618 193.91 232.384 193.737 232.19 193.523V193.523Z" fill="#B3CEF6"/>
<path d="M254.151 233.229L200.131 173.731C199.745 173.302 199.544 172.738 199.572 172.161C199.6 171.585 199.854 171.043 200.28 170.653C200.709 170.266 201.274 170.064 201.852 170.092C202.429 170.12 202.972 170.375 203.362 170.801L257.382 230.325C257.769 230.754 257.97 231.319 257.941 231.896C257.912 232.473 257.656 233.015 257.228 233.403C256.796 233.786 256.23 233.982 255.654 233.949C255.077 233.916 254.537 233.658 254.151 233.229V233.229Z" fill="#B3CEF6"/>
<path d="M246.404 240.243L192.384 180.751C191.999 180.321 191.799 179.756 191.827 179.18C191.856 178.603 192.112 178.061 192.538 177.672C192.969 177.288 193.533 177.088 194.11 177.116C194.687 177.143 195.229 177.397 195.62 177.821L249.656 237.303C250.042 237.732 250.243 238.297 250.215 238.873C250.187 239.45 249.933 239.992 249.507 240.382V240.382C249.294 240.577 249.045 240.728 248.774 240.826C248.503 240.924 248.215 240.969 247.927 240.956C247.639 240.943 247.356 240.873 247.095 240.751C246.833 240.629 246.599 240.456 246.404 240.243V240.243Z" fill="#B3CEF6"/>
<path d="M131.208 0L102.076 74.0091C101.362 75.6357 102.133 77.7293 103.582 78.1141L277.247 122.125C278.593 122.469 279.939 121.7 280.622 120.196L312.353 43.2263L131.208 0Z" fill="#E29D2D"/>
<g style="mix-blend-mode:multiply" opacity="0.2">
<path d="M251.367 130.89L166.201 81.8702C165.66 81.5584 165.062 81.3562 164.443 81.2751C163.823 81.194 163.194 81.2357 162.59 81.3977C161.987 81.5597 161.421 81.8389 160.926 82.2194C160.43 82.5998 160.015 83.074 159.703 83.6149L96.2562 193.6C95.944 194.14 95.7416 194.737 95.6604 195.356C95.5793 195.975 95.621 196.604 95.7831 197.207C95.9453 197.809 96.2249 198.374 96.6057 198.869C96.9865 199.364 97.4613 199.779 98.0028 200.091L183.168 249.11C183.71 249.423 184.307 249.626 184.927 249.707C185.547 249.788 186.176 249.747 186.78 249.585C187.384 249.423 187.949 249.143 188.445 248.763C188.94 248.382 189.355 247.907 189.667 247.366L253.113 137.381C253.742 136.289 253.912 134.991 253.584 133.774C253.257 132.557 252.459 131.52 251.367 130.89V130.89Z" fill="#3A7EC1"/>
</g>
<path d="M181.669 243.887L96.5081 194.867C95.9662 194.556 95.4909 194.141 95.1096 193.647C94.7282 193.152 94.4482 192.587 94.2855 191.984C94.1228 191.381 94.0807 190.752 94.1615 190.133C94.2423 189.514 94.4444 188.917 94.7564 188.376L158.218 78.3861C158.85 77.2944 159.89 76.4976 161.109 76.1705C162.328 75.8435 163.627 76.0128 164.722 76.6414L249.882 125.661C250.424 125.972 250.899 126.387 251.281 126.881C251.662 127.376 251.942 127.941 252.105 128.544C252.268 129.147 252.31 129.776 252.229 130.395C252.148 131.014 251.946 131.611 251.634 132.152L188.172 242.142C187.54 243.234 186.501 244.03 185.281 244.357C184.062 244.685 182.763 244.515 181.669 243.887V243.887Z" fill="white"/>
<path d="M201.112 195.329L128.814 153.714C128.738 153.67 128.671 153.611 128.617 153.541C128.563 153.471 128.523 153.391 128.501 153.306C128.478 153.22 128.472 153.132 128.483 153.044C128.495 152.956 128.524 152.872 128.568 152.795L157.247 103.073C157.292 102.996 157.35 102.929 157.421 102.876C157.491 102.822 157.571 102.782 157.656 102.76C157.741 102.737 157.831 102.731 157.918 102.742C158.006 102.754 158.09 102.783 158.167 102.827L230.47 144.442C230.623 144.532 230.735 144.679 230.781 144.85C230.828 145.022 230.804 145.205 230.716 145.36L202.037 195.083C201.946 195.238 201.798 195.35 201.625 195.397C201.452 195.443 201.267 195.418 201.112 195.329V195.329ZM130.073 152.883L201.204 193.826L229.211 145.273L158.08 104.33L130.073 152.883Z" fill="#E4ECF9"/>
<path d="M205.894 187.042L133.597 145.427C133.442 145.338 133.329 145.191 133.283 145.018C133.237 144.846 133.261 144.663 133.35 144.508C133.439 144.354 133.586 144.241 133.759 144.195C133.931 144.149 134.115 144.173 134.27 144.262L206.567 185.872C206.722 185.962 206.835 186.11 206.881 186.283C206.928 186.456 206.903 186.64 206.814 186.795C206.77 186.872 206.711 186.939 206.641 186.993C206.571 187.047 206.491 187.086 206.405 187.109C206.32 187.132 206.231 187.138 206.143 187.126C206.055 187.115 205.971 187.086 205.894 187.042V187.042Z" fill="#E4ECF9"/>
<path d="M210.672 178.755L138.374 137.14C138.298 137.096 138.231 137.037 138.177 136.967C138.123 136.897 138.083 136.817 138.061 136.732C138.038 136.646 138.032 136.557 138.043 136.47C138.055 136.382 138.084 136.298 138.128 136.221C138.172 136.145 138.231 136.078 138.301 136.024C138.371 135.97 138.451 135.931 138.536 135.908C138.622 135.885 138.711 135.879 138.799 135.891C138.886 135.902 138.971 135.931 139.047 135.975L211.345 177.59C211.421 177.634 211.489 177.693 211.542 177.763C211.596 177.833 211.636 177.913 211.659 177.998C211.681 178.084 211.687 178.173 211.676 178.26C211.664 178.348 211.636 178.432 211.591 178.509C211.547 178.585 211.488 178.652 211.418 178.706C211.348 178.76 211.268 178.799 211.183 178.822C211.097 178.845 211.008 178.851 210.921 178.839C210.833 178.828 210.748 178.799 210.672 178.755V178.755Z" fill="#E4ECF9"/>
<path d="M215.454 170.468L143.157 128.853C143.08 128.809 143.013 128.75 142.959 128.68C142.905 128.61 142.866 128.53 142.843 128.444C142.82 128.359 142.814 128.27 142.826 128.183C142.837 128.095 142.866 128.011 142.91 127.934C142.954 127.858 143.013 127.791 143.083 127.737C143.153 127.683 143.233 127.644 143.319 127.621C143.404 127.598 143.493 127.592 143.581 127.604C143.669 127.615 143.753 127.644 143.83 127.688L216.127 169.303C216.282 169.392 216.395 169.539 216.441 169.711C216.487 169.883 216.463 170.067 216.374 170.221C216.285 170.376 216.138 170.489 215.965 170.535C215.793 170.581 215.609 170.557 215.454 170.468V170.468Z" fill="#E4ECF9"/>
<path d="M220.232 162.181L147.944 120.586C147.868 120.542 147.801 120.483 147.747 120.413C147.693 120.343 147.654 120.263 147.631 120.178C147.608 120.093 147.602 120.004 147.613 119.916C147.625 119.829 147.654 119.744 147.698 119.668C147.742 119.591 147.801 119.524 147.871 119.47C147.941 119.417 148.021 119.377 148.106 119.354C148.192 119.331 148.281 119.326 148.369 119.337C148.456 119.349 148.541 119.377 148.617 119.421L220.889 161.016C221.044 161.105 221.157 161.252 221.203 161.424C221.249 161.596 221.225 161.78 221.136 161.934C221.047 162.089 220.9 162.202 220.727 162.248C220.555 162.294 220.371 162.27 220.216 162.181H220.232Z" fill="#E4ECF9"/>
<path d="M224.999 153.893L152.717 112.284C152.64 112.239 152.572 112.181 152.518 112.11C152.464 112.04 152.424 111.96 152.401 111.875C152.378 111.789 152.372 111.7 152.383 111.612C152.395 111.524 152.423 111.439 152.467 111.362C152.512 111.286 152.571 111.218 152.641 111.164C152.711 111.11 152.791 111.07 152.877 111.047C152.963 111.024 153.052 111.018 153.14 111.03C153.228 111.041 153.313 111.069 153.39 111.114L225.687 152.729C225.842 152.818 225.955 152.965 226.001 153.137C226.047 153.309 226.023 153.493 225.934 153.647C225.844 153.802 225.697 153.914 225.525 153.961C225.353 154.007 225.169 153.983 225.014 153.893H224.999Z" fill="#E4ECF9"/>
<path d="M189.066 188.391C188.989 188.348 188.921 188.289 188.867 188.219C188.812 188.15 188.772 188.07 188.749 187.984C188.726 187.899 188.719 187.81 188.73 187.722C188.742 187.634 188.77 187.55 188.814 187.473L217.499 137.756C217.543 137.679 217.602 137.612 217.672 137.558C217.742 137.504 217.822 137.465 217.908 137.442C217.993 137.419 218.082 137.413 218.17 137.425C218.257 137.436 218.342 137.465 218.418 137.509C218.495 137.553 218.562 137.612 218.616 137.682C218.67 137.752 218.709 137.832 218.732 137.917C218.755 138.003 218.761 138.092 218.749 138.179C218.738 138.267 218.709 138.351 218.665 138.428L189.985 188.145C189.941 188.222 189.882 188.289 189.812 188.342C189.742 188.396 189.662 188.436 189.577 188.459C189.491 188.481 189.402 188.487 189.314 188.476C189.227 188.464 189.142 188.436 189.066 188.391V188.391Z" fill="#E4ECF9"/>
<path d="M177.014 181.459C176.937 181.415 176.869 181.356 176.815 181.285C176.761 181.215 176.721 181.135 176.698 181.049C176.675 180.963 176.669 180.873 176.681 180.785C176.693 180.697 176.723 180.612 176.768 180.535L205.447 130.818C205.492 130.742 205.55 130.674 205.621 130.621C205.691 130.567 205.771 130.528 205.856 130.505C205.941 130.482 206.031 130.476 206.118 130.487C206.206 130.499 206.29 130.528 206.367 130.572C206.443 130.616 206.511 130.675 206.564 130.745C206.618 130.815 206.658 130.895 206.681 130.98C206.704 131.065 206.709 131.154 206.698 131.242C206.686 131.329 206.658 131.414 206.613 131.49L177.934 181.208C177.89 181.285 177.832 181.352 177.762 181.406C177.692 181.461 177.612 181.501 177.526 181.524C177.441 181.547 177.352 181.554 177.264 181.543C177.176 181.531 177.091 181.503 177.014 181.459V181.459Z" fill="#E4ECF9"/>
<path d="M164.963 174.521C164.886 174.477 164.819 174.418 164.765 174.348C164.712 174.278 164.672 174.198 164.649 174.113C164.626 174.028 164.62 173.939 164.632 173.851C164.644 173.764 164.672 173.679 164.716 173.603L193.396 123.88C193.485 123.725 193.633 123.612 193.806 123.565C193.978 123.518 194.163 123.542 194.318 123.631C194.473 123.721 194.587 123.868 194.634 124.04C194.68 124.213 194.657 124.397 194.567 124.553L165.883 174.275C165.838 174.352 165.78 174.419 165.709 174.472C165.639 174.526 165.559 174.566 165.474 174.588C165.388 174.611 165.299 174.617 165.212 174.606C165.124 174.594 165.04 174.565 164.963 174.521V174.521Z" fill="#E4ECF9"/>
<path d="M152.912 167.584C152.758 167.494 152.646 167.347 152.6 167.175C152.554 167.003 152.577 166.82 152.665 166.665L181.335 116.948C181.424 116.793 181.571 116.679 181.744 116.633C181.917 116.586 182.101 116.61 182.257 116.699C182.412 116.788 182.526 116.935 182.572 117.108C182.619 117.281 182.595 117.465 182.506 117.62L153.826 167.338C153.736 167.49 153.59 167.601 153.419 167.647C153.248 167.693 153.066 167.67 152.912 167.584V167.584Z" fill="#E4ECF9"/>
<path d="M140.866 160.651C140.711 160.561 140.597 160.414 140.55 160.241C140.503 160.068 140.526 159.884 140.614 159.728L169.299 110.01C169.388 109.856 169.535 109.743 169.707 109.697C169.88 109.651 170.063 109.675 170.218 109.764C170.373 109.853 170.486 110 170.532 110.172C170.578 110.345 170.554 110.528 170.465 110.683L141.78 160.4C141.692 160.554 141.546 160.667 141.375 160.714C141.203 160.761 141.02 160.739 140.866 160.651Z" fill="#E4ECF9"/>
<path d="M197.403 115.563L164.408 96.5767C164.072 96.3842 163.777 96.1273 163.541 95.8207C163.304 95.5141 163.131 95.1638 163.03 94.7901C162.929 94.4163 162.904 94.0264 162.954 93.6426C163.005 93.2588 163.13 92.8888 163.325 92.5537V92.5537C163.517 92.218 163.774 91.9235 164.081 91.6872C164.388 91.4509 164.739 91.2775 165.113 91.177C165.487 91.0764 165.878 91.0506 166.262 91.101C166.646 91.1515 167.016 91.2772 167.352 91.471L200.352 110.457C201.03 110.848 201.525 111.492 201.728 112.247C201.932 113.002 201.826 113.807 201.436 114.485C201.044 115.162 200.399 115.655 199.643 115.857C198.886 116.059 198.081 115.953 197.403 115.563V115.563Z" fill="#52D1BD"/>
<path d="M153.636 186.205L122.26 168.138C121.757 167.847 121.389 167.369 121.238 166.809C121.087 166.248 121.164 165.65 121.453 165.147C121.744 164.644 122.223 164.277 122.785 164.127C123.346 163.977 123.944 164.056 124.448 164.346L155.84 182.413C156.344 182.703 156.712 183.181 156.863 183.742C157.014 184.303 156.936 184.901 156.646 185.405V185.405C156.502 185.656 156.31 185.876 156.08 186.052C155.85 186.228 155.588 186.357 155.308 186.432C155.028 186.506 154.736 186.524 154.45 186.486C154.163 186.447 153.886 186.352 153.636 186.205Z" fill="#E4ECF9"/>
<path d="M186.693 217.286L117.025 177.185C116.522 176.895 116.155 176.418 116.004 175.858C115.853 175.298 115.93 174.701 116.219 174.198V174.198C116.362 173.948 116.553 173.729 116.781 173.553C117.009 173.378 117.27 173.249 117.548 173.174C117.827 173.099 118.117 173.08 118.403 173.117C118.688 173.155 118.964 173.248 119.213 173.393L188.881 213.494C189.131 213.637 189.35 213.828 189.526 214.056C189.702 214.284 189.831 214.544 189.906 214.822C189.981 215.1 190 215.39 189.963 215.676C189.925 215.961 189.832 216.236 189.687 216.485C189.396 216.988 188.917 217.355 188.356 217.505C187.794 217.655 187.196 217.576 186.693 217.286Z" fill="#E4ECF9"/>
<path d="M181.473 226.338L111.806 186.236C111.303 185.945 110.936 185.467 110.785 184.907C110.633 184.346 110.711 183.749 110.999 183.245V183.245C111.291 182.742 111.769 182.375 112.33 182.224C112.892 182.074 113.49 182.151 113.994 182.439L183.662 222.54C183.912 222.683 184.131 222.874 184.307 223.102C184.483 223.33 184.612 223.591 184.687 223.869C184.762 224.147 184.781 224.437 184.744 224.722C184.706 225.008 184.613 225.283 184.468 225.532V225.532C184.177 226.034 183.698 226.401 183.137 226.552C182.576 226.703 181.978 226.626 181.473 226.338V226.338Z" fill="#E4ECF9"/>
<path d="M203.742 164.13C203.519 164.13 203.3 164.066 203.111 163.947C202.922 163.829 202.771 163.659 202.673 163.458L195.754 148.967L179.937 150.235L158.511 159.789C158.231 159.913 157.914 159.923 157.626 159.818C157.339 159.713 157.103 159.5 156.97 159.225L150.05 144.734L134.162 146.089C134.004 146.108 133.844 146.096 133.691 146.052C133.538 146.008 133.396 145.934 133.272 145.834C133.149 145.734 133.047 145.61 132.972 145.47C132.898 145.33 132.852 145.176 132.839 145.018C132.825 144.859 132.844 144.7 132.894 144.549C132.943 144.398 133.023 144.259 133.128 144.14C133.233 144.02 133.36 143.923 133.504 143.854C133.647 143.785 133.803 143.746 133.961 143.739L150.667 142.317C150.906 142.297 151.146 142.35 151.354 142.469C151.562 142.588 151.729 142.768 151.833 142.984L158.603 157.167L179.151 148.003C179.273 147.948 179.403 147.913 179.537 147.9L196.365 146.551C196.604 146.531 196.843 146.584 197.05 146.703C197.257 146.822 197.424 147.002 197.526 147.218L204.297 161.401L224.757 152.164C224.9 152.093 225.055 152.052 225.213 152.042C225.372 152.033 225.531 152.055 225.681 152.109C225.831 152.162 225.968 152.245 226.085 152.353C226.202 152.46 226.296 152.59 226.361 152.735C226.427 152.88 226.462 153.036 226.466 153.195C226.469 153.354 226.44 153.512 226.381 153.659C226.322 153.807 226.234 153.941 226.122 154.053C226.009 154.166 225.876 154.255 225.728 154.314L204.215 164.007C204.067 164.081 203.906 164.123 203.742 164.13V164.13Z" fill="#52D1BD"/>
<g style="mix-blend-mode:multiply" opacity="0.2">
<path d="M151.751 59.159C151.588 58.1912 151.048 57.3272 150.249 56.7568C149.45 56.1863 148.456 55.9559 147.487 56.1162L52.3968 71.895C51.4285 72.0584 50.5644 72.5982 49.9936 73.3964C49.4227 74.1945 49.1915 75.186 49.3506 76.154L69.8111 199.142C69.9722 200.11 70.5118 200.976 71.3113 201.547C72.1108 202.119 73.1048 202.35 74.0748 202.19L169.16 186.406C169.64 186.327 170.099 186.154 170.512 185.897C170.925 185.64 171.283 185.305 171.566 184.91C171.849 184.515 172.051 184.068 172.161 183.594C172.271 183.121 172.286 182.631 172.206 182.152L151.751 59.159Z" fill="#3A7EC1"/>
</g>
<path d="M165.729 183.465L70.6588 199.244C70.1788 199.324 69.6877 199.309 69.2136 199.199C68.7395 199.09 68.2917 198.888 67.8957 198.605C67.4997 198.323 67.1634 197.965 66.9059 197.552C66.6484 197.14 66.4749 196.681 66.3951 196.201L45.9397 73.2138C45.8596 72.7343 45.8748 72.2437 45.9846 71.7702C46.0943 71.2966 46.2964 70.8492 46.5793 70.4537C46.8622 70.0582 47.2203 69.7222 47.6333 69.465C48.0462 69.2078 48.5059 69.0344 48.986 68.9548L144.056 53.176C144.535 53.0959 145.026 53.1112 145.5 53.2209C145.974 53.3306 146.421 53.5325 146.817 53.8151C147.212 54.0978 147.548 54.4556 147.805 54.868C148.062 55.2805 148.235 55.7395 148.314 56.2188L168.775 179.212C168.935 180.179 168.704 181.171 168.133 181.968C167.562 182.766 166.697 183.304 165.729 183.465V183.465Z" fill="white"/>
<path d="M125.034 78.7196L75.2513 86.9861C74.8391 87.0544 74.4175 87.0408 74.0105 86.9462C73.6036 86.8516 73.2193 86.6779 72.8796 86.4348C72.5399 86.1918 72.2515 85.8842 72.0309 85.5298C71.8103 85.1754 71.6617 84.781 71.5938 84.3692V84.3692C71.457 83.5379 71.6553 82.6864 72.1452 82.0008C72.6352 81.3152 73.377 80.8513 74.2085 80.7105L123.991 72.4491C124.824 72.3111 125.678 72.5093 126.365 73.0001C127.051 73.4908 127.515 74.2339 127.653 75.0661V75.0661C127.722 75.4778 127.708 75.899 127.613 76.3055C127.519 76.712 127.345 77.0959 127.102 77.4352C126.858 77.7745 126.55 78.0626 126.196 78.2829C125.841 78.5033 125.446 78.6517 125.034 78.7196V78.7196Z" fill="#52A1FF"/>
<path d="M141.965 89.7006L62.789 102.842C62.7004 102.856 62.6155 102.887 62.539 102.933C62.4626 102.98 62.3961 103.042 62.3436 103.114C62.2911 103.187 62.2534 103.269 62.2329 103.356C62.2123 103.443 62.2093 103.534 62.2239 103.622L69.9294 150.014C69.9437 150.102 69.9753 150.187 70.0224 150.262C70.0694 150.338 70.131 150.404 70.2035 150.456C70.2761 150.508 70.3582 150.545 70.4451 150.565C70.5321 150.585 70.6222 150.588 70.7102 150.573L149.891 137.432C150.07 137.402 150.229 137.302 150.334 137.155C150.439 137.008 150.481 136.825 150.451 136.647L142.746 90.2599C142.716 90.0828 142.617 89.9247 142.47 89.82C142.324 89.7153 142.143 89.6724 141.965 89.7006V89.7006ZM118.761 117.384L106.905 119.355L105.821 112.966L117.677 110.996L118.761 117.384ZM119.039 110.775L130.895 108.784L131.958 115.178L120.102 117.143L119.039 110.775ZM105.621 111.622L104.558 105.233L116.409 103.263L117.472 109.656L105.621 111.622ZM104.28 111.863L92.4293 113.828L91.3659 107.44L103.217 105.469L104.28 111.863ZM104.506 113.202L105.564 119.56L93.7084 121.53L92.645 115.137L104.506 113.202ZM92.3676 121.766L80.5115 123.737L79.4482 117.343L91.3043 115.378L92.3676 121.766ZM79.1708 123.957L67.2941 125.923L66.2667 119.56L78.1177 117.594L79.1708 123.957ZM79.3917 125.302L80.455 131.69L68.6041 133.656L67.5407 127.257L79.3917 125.302ZM80.7376 125.076L92.5885 123.111L93.6519 129.499L81.8009 131.464L80.7376 125.076ZM93.9344 122.885L105.785 120.92L106.849 127.308L94.9978 129.273L93.9344 122.885ZM107.07 128.652L108.133 135.041L96.282 137.006L95.2187 130.618L107.07 128.652ZM108.416 128.427L120.266 126.461L121.33 132.85L109.479 134.815L108.416 128.427ZM108.195 127.087L107.131 120.694L118.982 118.729L120.046 125.117L108.195 127.087ZM120.328 118.534L132.179 116.563L133.242 122.952L121.391 124.922L120.328 118.534ZM133.525 116.342L145.376 114.346L146.439 120.74L134.588 122.705L133.525 116.342ZM133.299 114.998L132.236 108.61L144.092 106.644L145.15 113.033L133.299 114.998ZM132.02 107.245L130.956 100.856L142.807 98.8857L143.871 105.274L132.02 107.245ZM130.674 107.47L118.823 109.436L117.76 103.047L129.605 101.087L130.674 107.47ZM117.534 101.703L116.475 95.3143L128.326 93.349L129.39 99.7375L117.534 101.703ZM116.193 101.929L104.337 103.894L103.253 97.4951L115.104 95.5298L116.193 101.929ZM102.996 104.12L91.145 106.085L90.0817 99.6964L101.933 97.7311L102.996 104.12ZM89.7992 106.311L77.943 108.271L76.8797 101.882L88.7307 99.9119L89.7992 106.311ZM90.0201 107.65L91.0834 114.038L79.2324 116.009L78.1691 109.62L90.0201 107.65ZM77.8814 116.224L66.0304 118.195L64.9671 111.801L76.8181 109.836L77.8814 116.224ZM68.8352 135L80.6913 133.029L81.7495 139.423L69.8986 141.388L68.8352 135ZM82.0321 132.809L93.8779 130.849L94.9361 137.237L83.0852 139.202L82.0321 132.809ZM95.1724 138.571L96.2358 144.965L84.3797 146.93L83.3214 140.542L95.1724 138.571ZM96.5183 138.351L108.369 136.38L109.417 142.774L97.5611 144.739L96.5183 138.351ZM109.71 136.16L121.566 134.194L122.619 140.598L110.763 142.563L109.71 136.16ZM122.907 133.969L134.763 132.003L135.826 138.392L123.97 140.357L122.907 133.969ZM122.686 132.629L121.612 126.23L133.463 124.265L134.527 130.654L122.686 132.629ZM134.819 124.045L146.67 122.079L147.734 128.468L135.873 130.438L134.819 124.045ZM142.592 97.5413L130.736 99.5117L129.672 93.1181L141.528 91.1528L142.592 97.5413ZM75.5133 102.113L76.5766 108.502L64.7257 110.462L63.6983 104.073L75.5133 102.113ZM70.0938 142.743L81.9447 140.773L83.0081 147.161L71.1571 149.132L70.0938 142.743ZM137.157 138.166L136.093 131.777L147.944 129.822L149.008 136.211L137.157 138.166Z" fill="#E4ECF9"/>
<path d="M85.4782 134.146L78.2012 135.354L80.2413 147.624L87.5183 146.416L85.4782 134.146Z" fill="#52A1FF"/>
<path d="M96.5304 120.354L89.2534 121.561L93.2285 145.469L100.506 144.262L96.5304 120.354Z" fill="#52A1FF"/>
<path d="M108.687 111.785L101.41 112.993L106.445 143.273L113.722 142.066L108.687 111.785Z" fill="#52A1FF"/>
<path d="M123.779 120.547L116.502 121.754L119.714 141.075L126.991 139.868L123.779 120.547Z" fill="#52A1FF"/>
<path d="M136.407 115.154L129.13 116.361L132.875 138.887L140.152 137.679L136.407 115.154Z" fill="#52A1FF"/>
<path d="M150.354 147.91L90.3026 157.881C89.7897 157.965 89.2642 157.843 88.8414 157.541C88.4186 157.239 88.1331 156.782 88.0475 156.269V156.269C88.0049 156.016 88.0128 155.756 88.0709 155.505C88.1289 155.255 88.2359 155.018 88.3858 154.809C88.5357 154.599 88.7254 154.422 88.9441 154.286C89.1629 154.15 89.4063 154.058 89.6605 154.017L149.712 144.052C150.224 143.967 150.749 144.088 151.171 144.39C151.594 144.691 151.88 145.147 151.967 145.658V145.658C152.051 146.17 151.929 146.695 151.627 147.117C151.324 147.54 150.866 147.825 150.354 147.91V147.91Z" fill="#E4ECF9"/>
<path d="M151.694 155.992L75.0355 168.687C74.5234 168.772 73.9985 168.65 73.5759 168.349C73.1532 168.048 72.8672 167.592 72.7804 167.081C72.6957 166.569 72.818 166.044 73.1204 165.622C73.4228 165.199 73.8806 164.914 74.3934 164.828L151.052 152.108C151.306 152.065 151.566 152.073 151.816 152.131C152.067 152.188 152.304 152.295 152.513 152.444C152.723 152.593 152.901 152.782 153.037 153C153.173 153.218 153.265 153.461 153.307 153.714V153.714C153.353 153.97 153.347 154.232 153.291 154.485C153.234 154.738 153.128 154.978 152.978 155.19C152.828 155.402 152.637 155.582 152.417 155.72C152.196 155.857 151.951 155.95 151.694 155.992V155.992Z" fill="#E4ECF9"/>
<path d="M153.035 164.018L76.3762 176.743C75.8634 176.828 75.3378 176.706 74.915 176.404C74.4922 176.102 74.2067 175.644 74.1211 175.132V175.132C74.0792 174.879 74.0877 174.62 74.1461 174.37C74.2045 174.119 74.3117 173.883 74.4615 173.675C74.6113 173.466 74.8008 173.289 75.0191 173.153C75.2375 173.018 75.4804 172.926 75.7341 172.885L152.393 160.159C152.647 160.117 152.906 160.126 153.156 160.184C153.407 160.242 153.643 160.349 153.852 160.499C154.061 160.649 154.238 160.838 154.374 161.056C154.51 161.274 154.601 161.517 154.643 161.77V161.77C154.728 162.281 154.606 162.805 154.304 163.226C154.003 163.648 153.546 163.932 153.035 164.018V164.018Z" fill="#E4ECF9"/>
<path d="M154.376 172.074L77.7119 184.799C77.4582 184.841 77.1988 184.833 76.9484 184.774C76.6981 184.716 76.4617 184.609 76.2527 184.459C76.0438 184.31 75.8664 184.12 75.7307 183.902C75.595 183.684 75.5037 183.442 75.4619 183.188C75.3771 182.677 75.4987 182.152 75.8001 181.73C76.1014 181.308 76.558 181.022 77.0698 180.936L153.734 168.215C154.245 168.13 154.77 168.252 155.191 168.553C155.613 168.854 155.898 169.31 155.984 169.821V169.821C156.069 170.333 155.947 170.857 155.646 171.279C155.344 171.701 154.888 171.987 154.376 172.074V172.074Z" fill="#E4ECF9"/>
<g style="mix-blend-mode:multiply" opacity="0.2">
<path d="M312.353 43.216L283.488 90.0034C282.995 90.8623 282.236 91.5379 281.326 91.9285C280.415 92.3191 279.402 92.4034 278.439 92.1688L93.0663 54.7615C92.7783 54.6923 92.5115 54.554 92.289 54.3587C92.0665 54.1634 91.895 53.9169 91.7893 53.6405C91.6836 53.3642 91.6469 53.0662 91.6823 52.7725C91.7177 52.4787 91.8242 52.198 91.9927 51.9546L131.506 7.18384L312.353 43.216Z" fill="#666666"/>
</g>
<path d="M98.5217 34.7801C97.0268 34.426 96.1638 33.8616 96.5953 33.5281C97.0268 33.1945 98.5833 33.2099 100.078 33.5691L142.931 43.7907C144.426 44.1499 145.289 44.7092 144.857 45.0428C144.426 45.3763 142.869 45.3609 141.374 45.0068L98.5217 34.7801ZM312.353 43.216L131.208 0L91.5406 30.9008L89.4395 32.5377C88.4789 33.2818 90.395 34.5287 93.7186 35.3189L142.263 46.9003C143.7 47.2463 145.168 47.4508 146.645 47.5109L160.062 47.9727C162.525 48.0792 164.971 48.4229 167.367 48.999L267.168 72.8083C270.214 73.537 273.399 73.5729 274.273 72.8904L312.353 43.2263" fill="#F9C067"/>
<path d="M142.931 43.7907L100.078 33.5691C98.5833 33.2099 97.0268 33.1945 96.5953 33.528C96.1638 33.8615 97.0268 34.426 98.5217 34.7801L141.374 45.0068C142.869 45.3608 144.426 45.3762 144.857 45.0427C145.289 44.7092 144.426 44.1498 142.931 43.7907" fill="white"/>
<path d="M179.089 285.363C183.384 282.444 184.497 276.6 181.575 272.31C178.653 268.019 172.802 266.908 168.508 269.827C164.213 272.746 163.1 278.59 166.022 282.88C168.944 287.17 174.794 288.282 179.089 285.363Z" fill="#3A7EC1"/>
<path d="M9.64187 139.782C9.76402 140.73 9.602 141.693 9.1763 142.55C8.7506 143.406 8.08034 144.116 7.25025 144.592C6.42017 145.068 5.46754 145.287 4.5128 145.222C3.55805 145.157 2.64408 144.81 1.88642 144.226C1.12876 143.642 0.561448 142.847 0.256198 141.941C-0.0490522 141.035 -0.078529 140.059 0.171494 139.136C0.421518 138.214 0.939814 137.386 1.66086 136.757C2.3819 136.129 3.27331 135.728 4.22238 135.605C5.49537 135.442 6.78105 135.791 7.79715 136.574C8.81325 137.357 9.47671 138.511 9.64187 139.782Z" fill="#3A7EC1"/>
<path d="M337.068 111.113C337.494 107.194 334.658 103.673 330.735 103.248C326.812 102.823 323.286 105.655 322.861 109.574C322.435 113.493 325.271 117.015 329.194 117.44C333.117 117.865 336.643 115.032 337.068 111.113Z" fill="#3A7EC1"/>
</g>
<defs>
<clipPath id="clip0_5866_11337">
<rect width="346" height="287" fill="white"/>
</clipPath>
</defs>
</svg>
